<!DOCTYPE svg PUBLIC "-//W3C//DTD SVG 1.1//EN" "http://www.w3.org/Graphics/SVG/1.1/DTD/svg11.dtd">
<!-- Uploaded to: SVG Repo, www.svgrepo.com, Transformed by: SVG Repo Mixer Tools -->
<svg width="800px" height="800px" viewBox="0 0 1024 1024" class="icon" version="1.1" xmlns="http://www.w3.org/2000/svg" fill="#000000">
<g id="SVGRepo_bgCarrier" stroke-width="0"/>
<g id="SVGRepo_tracerCarrier" stroke-linecap="round" stroke-linejoin="round"/>
<g id="SVGRepo_iconCarrier">
<path d="M512.9 504.8m-475.8 0a475.8 475.8 0 1 0 951.6 0 475.8 475.8 0 1 0-951.6 0Z" fill="#fef37c"/>
<path d="M512.9 504.8m-432.6 0a432.6 432.6 0 1 0 865.2 0 432.6 432.6 0 1 0-865.2 0Z" fill="#00edfa"/>
<path d="M512.9 947.4c-59.7 0-117.7-11.7-172.3-34.8-52.7-22.3-100-54.2-140.7-94.9-40.6-40.6-72.6-88-94.9-140.7-23-54.5-34.7-112.5-34.7-172.2S82 387 105 332.5c22.3-52.7 54.2-100 94.9-140.7 40.6-40.6 88-72.6 140.7-94.9 54.6-23.1 112.5-34.8 172.3-34.8 59.8 0 117.7 11.7 172.3 34.8 52.7 22.3 100 54.2 140.7 94.9 40.6 40.6 72.6 88 94.9 140.7 23.1 54.6 34.8 112.5 34.8 172.3S943.8 622.5 920.7 677c-22.3 52.7-54.2 100-94.9 140.7-40.6 40.6-88 72.6-140.7 94.9-54.5 23.1-112.5 34.8-172.2 34.8z m0-865.3c-57.1 0-112.4 11.2-164.5 33.2-50.3 21.3-95.5 51.8-134.3 90.6s-69.3 84-90.6 134.3c-22 52.1-33.2 107.4-33.2 164.5 0 57.1 11.2 112.4 33.2 164.5 21.3 50.3 51.8 95.5 90.6 134.3s84 69.3 134.3 90.6c52.1 22 107.4 33.2 164.5 33.2s112.4-11.2 164.5-33.2c50.3-21.3 95.5-51.8 134.3-90.6s69.3-84 90.6-134.3c22-52.1 33.2-107.4 33.2-164.5 0-57.1-11.2-112.4-33.2-164.5-21.3-50.3-51.8-95.5-90.6-134.3s-84-69.3-134.3-90.6c-52.1-22-107.5-33.2-164.5-33.2z" fill=""/>
<path d="M929 387.6C878.9 209.4 717.8 78 524.9 72.7c-53.2 63-101.3 145.8 13.5 145.8 185.2 0 137 136.5-70.4 146.2-207.4 9.7-148.9 156-32 170.6s112.1 102.3 112.1 136.5c0 34.1 102.3 14.6 151.1-58.5 48.7-73.1 102.3-151.1 97.5-199.8-3.1-31.1 75.3-30.4 132.3-25.9z" fill="#44ff00"/>
<path d="M574.1 698.1c-6 0-11.5-0.7-16.2-2.1-12.5-3.8-19.7-12.6-19.7-24.1v-4c0.1-18.1 0.2-45.4-12.6-70-15.2-29.2-45.8-46.9-90.8-52.6-31.4-3.9-60.6-17-82.3-36.8-21.4-19.6-33.2-44.3-32.3-67.5 0.6-16.3 7.6-39.7 37.5-58.5 25.5-16.1 62.4-25.4 109.8-27.6 53.1-2.5 100.6-14.1 133.8-32.6 26.9-15.1 42.8-33.9 42.4-50.3-0.3-14.1-12.8-23.3-23.2-28.6-18.8-9.6-47.2-14.6-82.2-14.6-41 0-66.6-10.5-76.3-31.3-7.6-16.3-4.6-38 8.8-64.5 9.8-19.4 25.4-41.7 46.3-66.5 2-2.3 4.8-3.6 7.9-3.5 48.3 1.3 95.7 10.4 140.7 27 43.6 16.1 84.3 38.9 120.9 67.8 36.3 28.6 67.7 62.6 93.5 100.9 26.1 38.9 45.8 81.5 58.5 126.5 0.9 3.1 0.2 6.5-1.9 9.1-2.1 2.5-5.3 3.9-8.5 3.6-63.9-5.1-108.6-1.4-119.7 10-1.5 1.6-2 2.9-1.8 4.9 5 50.4-44.9 125.2-93.2 197.6l-5.9 8.8c-18.2 27.2-45.5 50.3-76.9 64.9-20.1 9-40.4 14-56.6 14zM529.4 82.9c-40.7 49-58.1 86.6-49.1 105.9 7.6 16.3 35.8 19.7 58.1 19.7 38.6 0 69.3 5.7 91.2 16.8 21.6 11 33.7 27.3 34.1 46 0.6 24.3-18.6 49.2-52.6 68.2-25.3 14.2-70.6 31.8-142.6 35.1-78.8 3.7-126.8 28.7-128.3 66.9-0.7 17.4 8.7 36.3 25.9 52 18.6 17.1 43.9 28.3 71.2 31.7 51.9 6.5 87.6 27.7 106 63.2 15.1 29 15 60.5 14.9 79.3v3.9c0 1.2 0 3.3 5.5 5 10.4 3.1 32.5 0.9 58.6-11.2 28.1-13.1 52.5-33.6 68.7-57.8l5.9-8.8c44.2-66.2 94.3-141.3 90-184.5-0.8-7.9 1.8-15.1 7.5-20.9 15.3-15.6 54.9-21.1 121.1-16.9-12.1-37.9-29.4-73.9-51.7-107.1-24.6-36.6-54.6-69-89.3-96.4-70.7-55.5-155.3-86.6-245.1-90.1z" fill=""/>
<path d="M582.7 711c0 160-113.1 289.6-252.6 289.6S77.6 871 77.6 711s252.6-423.1 252.6-423.1L373.8 554l45.7-163.7c0-0.1 163.2 219.8 163.2 320.7z" fill="#fef37c"/>
<path d="M330.2 1010.6c-70.4 0-136.5-31.3-186.1-88.3C94.7 865.8 67.6 790.8 67.6 711c0-38.1 13.6-84.5 40.5-138.1 21.2-42.2 50.7-89.1 87.7-139.4 62.8-85.3 126.5-151.9 127.1-152.6 2.6-2.7 6.6-3.7 10.2-2.6 3.6 1.1 6.3 4.2 6.9 7.9l36.3 221.4 33.5-120.1c1-3.7 4.1-6.5 7.8-7.1 3.8-0.7 7.6 0.8 9.9 3.9 6.7 9.1 165.2 223.8 165.2 326.8 0 79.8-27.1 154.9-76.4 211.4-49.6 56.8-115.7 88.1-186.1 88.1z m-6.6-701c-22 24.1-67.1 75.2-111.8 135.9-56.7 77-124.2 185.6-124.2 265.5 0 154.2 108.8 279.6 242.6 279.6S572.7 865.2 572.7 711c0-39.4-27.7-106.1-80.1-192.9-26.9-44.5-54-83.9-69.1-105.2l-40.1 143.7c-1.3 4.5-5.5 7.5-10.2 7.3-4.7-0.3-8.6-3.7-9.3-8.4l-40.3-245.9z" fill=""/>
<path d="M437.6 862c0 76.5-44.9 138.6-100.2 138.6s-100.2-34.3-100.2-110.9c0-117.8 128-221.8 128-221.8s72.4 117.6 72.4 194.1z" fill="#ff441f"/>
<path d="M337.4 1010.6c-31.6 0-58.6-10.3-78-29.7-21.1-21.1-32.3-52.7-32.3-91.2 0-28.3 7-58.1 20.9-88.5 10.9-24 26.2-48.5 45.2-72.7 32.3-41.1 64.2-67.2 65.5-68.3 2.2-1.8 5.1-2.6 8-2.1 2.8 0.5 5.3 2.2 6.8 4.6 0.8 1.2 18.6 30.3 36.8 69.3 24.7 53 37.2 96.7 37.2 129.9 0 39.1-11.1 76-31.3 103.9-20.7 28.9-48.8 44.8-78.8 44.8z m25.2-327.2c-11.6 10.4-32.8 30.9-53.9 57.8-28.1 35.8-61.6 90.7-61.6 148.5 0 33.6 8.9 59.5 26.4 77.1 15.6 15.6 37.6 23.8 63.8 23.8 49.8 0 90.2-57.7 90.2-128.6 0.1-60-47.8-148.7-64.9-178.6z" fill=""/>
</g>
</svg>